<svg xmlns="http://www.w3.org/2000/svg" width="20" height="93" viewBox="0 0 20 93">
  <path fill="#F5F5F3" fill-rule="evenodd" d="M723.660027,312.388967 C722.913764,312.965045 721.923093,313.252677 720.694529,313.252677 L714.954173,313.252677 L714.954173,306.570331 L720.694529,306.570331 C721.936128,306.570331 722.928429,306.858777 723.670618,307.434856 C724.412807,308.010934 724.784309,308.836348 724.784309,309.911911 C724.784309,310.987475 724.411178,311.812888 723.660027,312.388967 M729.974744,329.090352 L724.423398,317.295819 C725.577824,316.943001 726.563607,316.411738 727.378305,315.701214 C729.001996,314.286685 729.815064,312.360448 729.815064,309.920874 C729.815064,307.48293 728.999552,305.552619 727.370158,304.131572 C725.737505,302.710524 723.446576,302 720.49167,302 L710.321805,302 C710.144201,302 710,302.144223 710,302.321039 L710,329.215834 C710,329.393465 710.144201,329.536873 710.321805,329.536873 L714.633183,329.536873 C714.809972,329.536873 714.954173,329.393465 714.954173,329.215834 L714.954173,317.823008 L719.099352,317.823008 L724.704469,329.320131 C724.802232,329.50591 724.901625,329.536873 725.106929,329.536873 L729.679009,329.536873 C729.856613,329.536873 730,329.393465 730,329.215834 C730,329.176723 729.996741,329.135982 729.974744,329.090352 M729.555175,386.99886 L710.321805,386.99886 C710.144201,386.99886 710,387.151628 710,387.338919 L710,394.159941 C710,394.348096 710.144201,394.5 710.321805,394.5 L729.555175,394.5 C729.731965,394.5 729.876166,394.348096 729.876166,394.159941 L729.876166,387.338919 C729.876166,387.151628 729.731965,386.99886 729.555175,386.99886 M729.555175,367.463529 L717.200293,367.463529 L723.897104,361.093258 C725.439325,359.60947 726.544055,358.238126 727.208033,356.980042 C727.868752,355.721144 728.201963,354.234096 728.201963,352.517268 C728.201963,350.021472 727.392969,347.995827 725.774166,346.442778 C724.154548,344.889729 721.974419,344.113205 719.235407,344.113205 C716.560756,344.113205 714.371665,344.967137 712.668948,346.675817 C710.967046,348.384496 710.039105,350.660291 710.039105,352.930382 L710.039105,353.187051 C710.039105,353.362237 710.183307,353.504016 710.359281,353.504016 L714.419732,353.504016 C714.594892,353.504016 714.735834,353.363867 714.739908,353.189495 L714.761905,352.923864 C714.864557,351.568002 715.320787,350.522587 716.133855,349.785988 C716.946108,349.05102 717.980773,348.683536 719.235407,348.683536 C720.515296,348.683536 721.535297,349.060798 722.298668,349.816137 C723.05878,350.571476 723.440059,351.568002 723.440059,352.807344 C723.440059,354.549432 722.538189,356.279296 720.73282,357.995309 L710.422828,367.70879 C710.140943,367.936125 710,368.231905 710,368.59613 L710,371.656597 C710,371.907562 710.128722,372.033859 710.384537,372.033859 L729.555175,372.033859 C729.731965,372.033859 729.876166,371.889636 729.876166,371.71282 L729.876166,367.784568 C729.876166,367.607752 729.731965,367.463529 729.555175,367.463529" transform="translate(-710 -302)"/>
</svg>
