<svg xmlns="http://www.w3.org/2000/svg" width="16" height="74" viewBox="0 0 16 74">
  <path fill="#F5F5F3" fill-rule="evenodd" d="M20.9280215,17.3111735 C20.3310114,17.7720362 19.5384741,18.0021417 18.5556234,18.0021417 L13.9633386,18.0021417 L13.9633386,12.6562645 L18.5556234,12.6562645 C19.5489022,12.6562645 20.3427431,12.8870218 20.9364944,13.3478845 C21.5302456,13.8087472 21.8274471,14.4690781 21.8274471,15.329529 C21.8274471,16.1899799 21.5289421,16.8503108 20.9280215,17.3111735 M25.9797955,30.6722812 L21.5387185,21.2366548 C22.4622592,20.9544009 23.250886,20.5293903 23.9026437,19.9609712 C25.2015968,18.8293479 25.852051,17.2883585 25.852051,15.3366994 C25.852051,13.386344 25.1996415,11.8420954 23.8961261,10.7052572 C22.5900037,9.56841908 20.757261,9 18.3933358,9 L10.2574443,9 C10.1153611,9 10,9.11537864 10,9.25683156 L10,30.7726672 C10,30.9147719 10.1153611,31.0294987 10.2574443,31.0294987 L13.7065461,31.0294987 C13.8479775,31.0294987 13.9633386,30.9147719 13.9633386,30.7726672 L13.9633386,21.6584061 L17.2794819,21.6584061 L21.7635749,30.8561048 C21.8417858,31.0047282 21.9213003,31.0294987 22.0855432,31.0294987 L25.7432075,31.0294987 C25.8852906,31.0294987 26,30.9147719 26,30.7726672 C26,30.741378 25.997393,30.7087852 25.9797955,30.6722812 M25.6441403,76.9990883 L10.2574443,76.9990883 C10.1153611,76.9990883 10,77.1213022 10,77.2711351 L10,82.7279531 C10,82.8784765 10.1153611,83 10.2574443,83 L25.6441403,83 C25.7855717,83 25.9009328,82.8784765 25.9009328,82.7279531 L25.9009328,77.2711351 C25.9009328,77.1213022 25.7855717,76.9990883 25.6441403,76.9990883 M25.6441403,61.3708228 L15.7602346,61.3708228 L21.117683,56.2746068 C22.3514603,55.0875756 23.2352438,53.9905007 23.7664263,52.9840339 C24.2950018,51.9769152 24.5615707,50.7872767 24.5615707,49.4138145 C24.5615707,47.4171773 23.9143753,45.7966614 22.6193328,44.5542225 C21.3236384,43.3117835 19.5795348,42.690564 17.3883254,42.690564 C15.2486048,42.690564 13.4973319,43.3737099 12.1351583,44.7406535 C10.7736364,46.1075971 10.0312844,47.928233 10.0312844,49.7443059 L10.0312844,49.9496408 C10.0312844,50.08979 10.1466455,50.203213 10.2874251,50.203213 L13.5357856,50.203213 C13.6759135,50.203213 13.7886676,50.0910937 13.7919264,49.9515963 L13.8095238,49.739091 C13.8916453,48.6544014 14.2566296,47.8180692 14.9070838,47.2287907 C15.5568862,46.6408159 16.3846185,46.3468285 17.3883254,46.3468285 C18.4122368,46.3468285 19.2282374,46.6486382 19.8389344,47.2529094 C20.4470243,47.8571806 20.7520469,48.6544014 20.7520469,49.6458755 C20.7520469,51.0395452 20.0305511,52.4234371 18.5862561,53.7962474 L10.3382623,61.5670317 C10.1127541,61.7488997 10,61.9855237 10,62.2769037 L10,64.7252776 C10,64.9260495 10.1029777,65.0270873 10.3076296,65.0270873 L25.6441403,65.0270873 C25.7855717,65.0270873 25.9009328,64.9117086 25.9009328,64.7702557 L25.9009328,61.6276544 C25.9009328,61.4862014 25.7855717,61.3708228 25.6441403,61.3708228" transform="translate(-10 -9)"/>
</svg>
